<svg width="158" height="16" viewBox="0 0 158 16" fill="none" xmlns="http://www.w3.org/2000/svg">
<path d="M3.96094 3.39062C4.65365 3.39062 5.2474 3.57031 5.74219 3.92969C6.23698 4.28385 6.61198 4.78646 6.86719 5.4375C7.1276 6.08333 7.25781 6.83854 7.25781 7.70312V7.86719C7.25781 8.69531 7.1276 9.4349 6.86719 10.0859C6.61198 10.7318 6.23698 11.2396 5.74219 11.6094C5.2474 11.974 4.65885 12.1562 3.97656 12.1562C2.90885 12.1562 2.08333 11.7839 1.5 11.0391L1.42969 12H0.09375V0H1.55469V4.45312C2.13281 3.74479 2.9349 3.39062 3.96094 3.39062ZM5.79688 7.70312C5.79688 6.77604 5.61979 6.02865 5.26562 5.46094C4.91667 4.88802 4.35938 4.60156 3.59375 4.60156C3.09896 4.60156 2.68229 4.72135 2.34375 4.96094C2.01042 5.19531 1.7474 5.51562 1.55469 5.92188V9.61719C1.7526 10.0182 2.02083 10.3385 2.35938 10.5781C2.70312 10.8177 3.11979 10.9375 3.60938 10.9375C4.34375 10.9375 4.89062 10.6536 5.25 10.0859C5.61458 9.51302 5.79688 8.77344 5.79688 7.86719V7.70312ZM8.70312 7.6875C8.70312 6.86979 8.85938 6.13542 9.17188 5.48438C9.48438 4.83333 9.92969 4.32292 10.5078 3.95312C11.0911 3.57812 11.7682 3.39062 12.5391 3.39062C13.3203 3.39062 14.0026 3.57812 14.5859 3.95312C15.1693 4.32292 15.6172 4.83333 15.9297 5.48438C16.2422 6.13542 16.3984 6.86979 16.3984 7.6875V7.86719C16.3984 8.6849 16.2422 9.41927 15.9297 10.0703C15.6172 10.7161 15.1693 11.2266 14.5859 11.6016C14.0078 11.9714 13.3307 12.1562 12.5547 12.1562C11.7786 12.1562 11.099 11.9714 10.5156 11.6016C9.9375 11.2266 9.48958 10.7161 9.17188 10.0703C8.85938 9.41927 8.70312 8.6849 8.70312 7.86719V7.6875ZM10.1641 7.86719C10.1641 8.4401 10.2526 8.96354 10.4297 9.4375C10.612 9.91146 10.8828 10.2891 11.2422 10.5703C11.6016 10.8464 12.0391 10.9844 12.5547 10.9844C13.0651 10.9844 13.5 10.8464 13.8594 10.5703C14.2188 10.2891 14.487 9.91146 14.6641 9.4375C14.8464 8.96354 14.9375 8.4401 14.9375 7.86719V7.6875C14.9375 7.11458 14.8464 6.59115 14.6641 6.11719C14.4818 5.64323 14.2109 5.26562 13.8516 4.98438C13.4922 4.70312 13.0547 4.5625 12.5391 4.5625C12.0286 4.5625 11.5938 4.70312 11.2344 4.98438C10.8802 5.26562 10.612 5.64323 10.4297 6.11719C10.2526 6.59115 10.1641 7.11458 10.1641 7.6875V7.86719ZM17.8438 7.6875C17.8438 6.86979 18 6.13542 18.3125 5.48438C18.625 4.83333 19.0703 4.32292 19.6484 3.95312C20.2318 3.57812 20.9089 3.39062 21.6797 3.39062C22.4609 3.39062 23.1432 3.57812 23.7266 3.95312C24.3099 4.32292 24.7578 4.83333 25.0703 5.48438C25.3828 6.13542 25.5391 6.86979 25.5391 7.6875V7.86719C25.5391 8.6849 25.3828 9.41927 25.0703 10.0703C24.7578 10.7161 24.3099 11.2266 23.7266 11.6016C23.1484 11.9714 22.4714 12.1562 21.6953 12.1562C20.9193 12.1562 20.2396 11.9714 19.6562 11.6016C19.0781 11.2266 18.6302 10.7161 18.3125 10.0703C18 9.41927 17.8438 8.6849 17.8438 7.86719V7.6875ZM19.3047 7.86719C19.3047 8.4401 19.3932 8.96354 19.5703 9.4375C19.7526 9.91146 20.0234 10.2891 20.3828 10.5703C20.7422 10.8464 21.1797 10.9844 21.6953 10.9844C22.2057 10.9844 22.6406 10.8464 23 10.5703C23.3594 10.2891 23.6276 9.91146 23.8047 9.4375C23.987 8.96354 24.0781 8.4401 24.0781 7.86719V7.6875C24.0781 7.11458 23.987 6.59115 23.8047 6.11719C23.6224 5.64323 23.3516 5.26562 22.9922 4.98438C22.6328 4.70312 22.1953 4.5625 21.6797 4.5625C21.1693 4.5625 20.7344 4.70312 20.375 4.98438C20.0208 5.26562 19.7526 5.64323 19.5703 6.11719C19.3932 6.59115 19.3047 7.11458 19.3047 7.6875V7.86719ZM29.7344 8.07812L28.8281 9.01562V12H27.3672V0H28.8281V7.25L29.6016 6.33594L32.2109 3.54688H33.9844L30.6953 7.07031L34.375 12H32.6562L29.7344 8.07812ZM38.4688 8.28906C37.4635 8.08073 36.7031 7.78906 36.1875 7.41406C35.6771 7.03906 35.4219 6.52083 35.4219 5.85938C35.4219 5.41146 35.5521 5 35.8125 4.625C36.0729 4.25 36.4401 3.95052 36.9141 3.72656C37.3932 3.5026 37.9401 3.39062 38.5547 3.39062C39.2109 3.39062 39.7839 3.50781 40.2734 3.74219C40.763 3.97656 41.1354 4.29427 41.3906 4.69531C41.651 5.09115 41.7812 5.53385 41.7812 6.02344H40.3203C40.3203 5.78385 40.25 5.55208 40.1094 5.32812C39.9688 5.10417 39.763 4.92188 39.4922 4.78125C39.2266 4.63542 38.9141 4.5625 38.5547 4.5625C38.1745 4.5625 37.8594 4.6224 37.6094 4.74219C37.3594 4.85677 37.1745 5.01042 37.0547 5.20312C36.9401 5.39062 36.8828 5.59375 36.8828 5.8125C36.8828 6.03646 36.9349 6.22396 37.0391 6.375C37.1484 6.52083 37.3411 6.65365 37.6172 6.77344C37.8984 6.89323 38.3021 7.01042 38.8281 7.125C39.5365 7.28646 40.112 7.47656 40.5547 7.69531C40.9974 7.91406 41.3255 8.18229 41.5391 8.5C41.7578 8.81771 41.8672 9.20312 41.8672 9.65625C41.8672 10.1458 41.7318 10.5807 41.4609 10.9609C41.1901 11.3359 40.8073 11.6302 40.3125 11.8438C39.8177 12.0521 39.2448 12.1562 38.5938 12.1562C37.875 12.1562 37.2526 12.0286 36.7266 11.7734C36.2057 11.513 35.8099 11.1719 35.5391 10.75C35.2682 10.3281 35.1328 9.8776 35.1328 9.39844H36.5938C36.6146 9.77344 36.724 10.0807 36.9219 10.3203C37.1198 10.5547 37.3646 10.724 37.6562 10.8281C37.9531 10.9323 38.2656 10.9844 38.5938 10.9844C38.974 10.9844 39.2995 10.9323 39.5703 10.8281C39.8464 10.7188 40.0547 10.5729 40.1953 10.3906C40.3359 10.2031 40.4062 9.99219 40.4062 9.75781C40.4062 9.52344 40.3568 9.32031 40.2578 9.14844C40.1589 8.97656 39.9688 8.81771 39.6875 8.67188C39.4062 8.52604 39 8.39844 38.4688 8.28906ZM50.2188 0.820312C51.4844 0.820312 52.5677 1.09375 53.4688 1.64062C54.3698 2.18229 55.0521 2.96094 55.5156 3.97656C55.9844 4.98698 56.2188 6.18229 56.2188 7.5625C56.2188 7.78646 56.2161 7.95573 56.2109 8.07031C56.1849 8.76823 56.0573 9.42708 55.8281 10.0469C55.6042 10.6667 55.2578 11.1745 54.7891 11.5703C54.3203 11.9661 53.7292 12.1641 53.0156 12.1641C52.5365 12.1641 52.1354 12.0495 51.8125 11.8203C51.4948 11.5911 51.2708 11.2656 51.1406 10.8438C50.8698 11.2708 50.5521 11.599 50.1875 11.8281C49.8229 12.0521 49.4453 12.1641 49.0547 12.1641C48.3724 12.1641 47.8464 11.9115 47.4766 11.4062C47.1068 10.901 46.9219 10.2109 46.9219 9.33594C46.9219 9.21615 46.9323 9.01562 46.9531 8.73438C47.0312 7.84896 47.2344 7.06771 47.5625 6.39062C47.8958 5.70833 48.3047 5.1849 48.7891 4.82031C49.2786 4.45052 49.7917 4.26562 50.3281 4.26562C50.6823 4.26562 50.9896 4.30208 51.25 4.375C51.5156 4.44792 51.7422 4.54167 51.9297 4.65625C52.1224 4.76562 52.3411 4.91406 52.5859 5.10156L52.1875 9.42969C52.1771 9.52344 52.1719 9.65625 52.1719 9.82812C52.1719 10.3594 52.2682 10.7266 52.4609 10.9297C52.6536 11.1328 52.8932 11.2344 53.1797 11.2344C53.5859 11.2344 53.9349 11.0964 54.2266 10.8203C54.5234 10.5443 54.7526 10.1667 54.9141 9.6875C55.0755 9.20833 55.1693 8.66927 55.1953 8.07031C55.2057 7.79948 55.2109 7.60417 55.2109 7.48438C55.2109 5.67188 54.7943 4.27865 53.9609 3.30469C53.1276 2.33073 51.8698 1.84375 50.1875 1.84375C49.1146 1.84375 48.1719 2.11198 47.3594 2.64844C46.5521 3.1849 45.9193 3.9375 45.4609 4.90625C45.0026 5.875 44.7474 6.99479 44.6953 8.26562C44.6849 8.50521 44.6797 8.67708 44.6797 8.78125C44.6797 9.97917 44.875 11.013 45.2656 11.8828C45.6562 12.7474 46.224 13.4115 46.9688 13.875C47.7135 14.3385 48.6094 14.5703 49.6562 14.5703C50.1198 14.5703 50.5859 14.5156 51.0547 14.4062C51.5234 14.2969 51.9193 14.1484 52.2422 13.9609L52.5391 14.8438C52.1953 15.0677 51.7526 15.2396 51.2109 15.3594C50.6745 15.4792 50.1458 15.5391 49.625 15.5391C48.3646 15.5391 47.2786 15.2656 46.3672 14.7188C45.4557 14.1719 44.7578 13.388 44.2734 12.3672C43.7891 11.3516 43.5469 10.1458 43.5469 8.75C43.5469 8.53646 43.5495 8.375 43.5547 8.26562C43.6172 6.83854 43.9297 5.5625 44.4922 4.4375C45.0599 3.30729 45.8359 2.42188 46.8203 1.78125C47.8047 1.14062 48.9375 0.820312 50.2188 0.820312ZM49.4141 11.0469C49.7109 11.0469 50.0052 10.9193 50.2969 10.6641C50.5885 10.4036 50.8307 10.013 51.0234 9.49219L51.0312 9.42969L51.3906 5.49219C51.099 5.34115 50.7865 5.26562 50.4531 5.26562C50.0729 5.26562 49.724 5.39844 49.4062 5.66406C49.0885 5.92448 48.8255 6.3151 48.6172 6.83594C48.4089 7.35677 48.2708 7.98958 48.2031 8.73438C48.1875 8.91146 48.1797 9.08333 48.1797 9.25C48.1797 9.82812 48.2839 10.2734 48.4922 10.5859C48.7057 10.8932 49.013 11.0469 49.4141 11.0469ZM58.9766 0.46875C59.2474 0.46875 59.4583 0.546875 59.6094 0.703125C59.7656 0.859375 59.8438 1.05729 59.8438 1.29688C59.8438 1.53125 59.7656 1.72656 59.6094 1.88281C59.4583 2.03385 59.2474 2.10938 58.9766 2.10938C58.7057 2.10938 58.4948 2.03385 58.3438 1.88281C58.1979 1.72656 58.125 1.53125 58.125 1.29688C58.125 1.05729 58.1979 0.859375 58.3438 0.703125C58.4948 0.546875 58.7057 0.46875 58.9766 0.46875ZM58.2344 12V3.54688H59.6953V12H58.2344ZM61.625 7.6875C61.625 6.86979 61.7812 6.13542 62.0938 5.48438C62.4062 4.83333 62.8516 4.32292 63.4297 3.95312C64.013 3.57812 64.6901 3.39062 65.4609 3.39062C66.2422 3.39062 66.9245 3.57812 67.5078 3.95312C68.0911 4.32292 68.5391 4.83333 68.8516 5.48438C69.1641 6.13542 69.3203 6.86979 69.3203 7.6875V7.86719C69.3203 8.6849 69.1641 9.41927 68.8516 10.0703C68.5391 10.7161 68.0911 11.2266 67.5078 11.6016C66.9297 11.9714 66.2526 12.1562 65.4766 12.1562C64.7005 12.1562 64.0208 11.9714 63.4375 11.6016C62.8594 11.2266 62.4115 10.7161 62.0938 10.0703C61.7812 9.41927 61.625 8.6849 61.625 7.86719V7.6875ZM63.0859 7.86719C63.0859 8.4401 63.1745 8.96354 63.3516 9.4375C63.5339 9.91146 63.8047 10.2891 64.1641 10.5703C64.5234 10.8464 64.9609 10.9844 65.4766 10.9844C65.987 10.9844 66.4219 10.8464 66.7812 10.5703C67.1406 10.2891 67.4089 9.91146 67.5859 9.4375C67.7682 8.96354 67.8594 8.4401 67.8594 7.86719V7.6875C67.8594 7.11458 67.7682 6.59115 67.5859 6.11719C67.4036 5.64323 67.1328 5.26562 66.7734 4.98438C66.4141 4.70312 65.9766 4.5625 65.4609 4.5625C64.9505 4.5625 64.5156 4.70312 64.1562 4.98438C63.8021 5.26562 63.5339 5.64323 63.3516 6.11719C63.1745 6.59115 63.0859 7.11458 63.0859 7.6875V7.86719ZM77.5859 10.1562C77.5859 10.4531 77.612 10.7604 77.6641 11.0781C77.7161 11.3906 77.7891 11.6562 77.8828 11.875V12H76.3594C76.2708 11.7969 76.2031 11.5026 76.1562 11.1172C75.8646 11.4297 75.513 11.6823 75.1016 11.875C74.6953 12.0625 74.2474 12.1562 73.7578 12.1562C73.1953 12.1562 72.6953 12.0469 72.2578 11.8281C71.8255 11.6042 71.4896 11.3021 71.25 10.9219C71.0156 10.5417 70.8984 10.1198 70.8984 9.65625C70.8984 9.05729 71.0521 8.54948 71.3594 8.13281C71.6719 7.71615 72.112 7.40365 72.6797 7.19531C73.2526 6.98177 73.9271 6.875 74.7031 6.875H76.125V6.20312C76.125 5.6875 75.9714 5.28385 75.6641 4.99219C75.362 4.69531 74.9245 4.54688 74.3516 4.54688C74.0026 4.54688 73.6901 4.60938 73.4141 4.73438C73.138 4.85417 72.9219 5.01823 72.7656 5.22656C72.6146 5.42969 72.5391 5.65104 72.5391 5.89062H71.0781C71.0781 5.47917 71.2188 5.08073 71.5 4.69531C71.7812 4.3099 72.1771 3.9974 72.6875 3.75781C73.1979 3.51302 73.7812 3.39062 74.4375 3.39062C75.0625 3.39062 75.6094 3.4974 76.0781 3.71094C76.5521 3.91927 76.9219 4.23698 77.1875 4.66406C77.4531 5.08594 77.5859 5.60417 77.5859 6.21875V10.1562ZM73.9688 10.9062C74.3021 10.9062 74.612 10.849 74.8984 10.7344C75.1901 10.6146 75.4401 10.4583 75.6484 10.2656C75.8568 10.0729 76.0156 9.86458 76.125 9.64062V7.89062H74.9375C74.1042 7.89062 73.4661 8.02344 73.0234 8.28906C72.5807 8.54948 72.3594 8.9375 72.3594 9.45312C72.3594 9.72917 72.4219 9.97656 72.5469 10.1953C72.6719 10.4141 72.8542 10.5885 73.0938 10.7188C73.3333 10.8438 73.625 10.9062 73.9688 10.9062ZM82.8438 8.28906C81.8385 8.08073 81.0781 7.78906 80.5625 7.41406C80.0521 7.03906 79.7969 6.52083 79.7969 5.85938C79.7969 5.41146 79.9271 5 80.1875 4.625C80.4479 4.25 80.8151 3.95052 81.2891 3.72656C81.7682 3.5026 82.3151 3.39062 82.9297 3.39062C83.5859 3.39062 84.1589 3.50781 84.6484 3.74219C85.138 3.97656 85.5104 4.29427 85.7656 4.69531C86.026 5.09115 86.1562 5.53385 86.1562 6.02344H84.6953C84.6953 5.78385 84.625 5.55208 84.4844 5.32812C84.3438 5.10417 84.138 4.92188 83.8672 4.78125C83.6016 4.63542 83.2891 4.5625 82.9297 4.5625C82.5495 4.5625 82.2344 4.6224 81.9844 4.74219C81.7344 4.85677 81.5495 5.01042 81.4297 5.20312C81.3151 5.39062 81.2578 5.59375 81.2578 5.8125C81.2578 6.03646 81.3099 6.22396 81.4141 6.375C81.5234 6.52083 81.7161 6.65365 81.9922 6.77344C82.2734 6.89323 82.6771 7.01042 83.2031 7.125C83.9115 7.28646 84.487 7.47656 84.9297 7.69531C85.3724 7.91406 85.7005 8.18229 85.9141 8.5C86.1328 8.81771 86.2422 9.20312 86.2422 9.65625C86.2422 10.1458 86.1068 10.5807 85.8359 10.9609C85.5651 11.3359 85.1823 11.6302 84.6875 11.8438C84.1927 12.0521 83.6198 12.1562 82.9688 12.1562C82.25 12.1562 81.6276 12.0286 81.1016 11.7734C80.5807 11.513 80.1849 11.1719 79.9141 10.75C79.6432 10.3281 79.5078 9.8776 79.5078 9.39844H80.9688C80.9896 9.77344 81.099 10.0807 81.2969 10.3203C81.4948 10.5547 81.7396 10.724 82.0312 10.8281C82.3281 10.9323 82.6406 10.9844 82.9688 10.9844C83.349 10.9844 83.6745 10.9323 83.9453 10.8281C84.2214 10.7188 84.4297 10.5729 84.5703 10.3906C84.7109 10.2031 84.7812 9.99219 84.7812 9.75781C84.7812 9.52344 84.7318 9.32031 84.6328 9.14844C84.5339 8.97656 84.3438 8.81771 84.0625 8.67188C83.7812 8.52604 83.375 8.39844 82.8438 8.28906ZM94.4062 3.54688L91.0156 13.3047C90.8073 13.8724 90.5052 14.3646 90.1094 14.7812C89.7188 15.2031 89.1849 15.4141 88.5078 15.4141C88.3984 15.4141 88.2552 15.3984 88.0781 15.3672C87.9062 15.3411 87.776 15.3151 87.6875 15.2891V14.125C87.7448 14.1354 87.8099 14.1432 87.8828 14.1484C87.9557 14.1589 88.0208 14.1641 88.0781 14.1641C88.5729 14.1641 88.9557 14.0599 89.2266 13.8516C89.5026 13.6484 89.7266 13.2891 89.8984 12.7734L90.2188 11.9062L87.2031 3.54688H88.7969L90.8906 9.875L92.8516 3.54688H94.4062ZM98.6875 8.28906C97.6823 8.08073 96.9219 7.78906 96.4062 7.41406C95.8958 7.03906 95.6406 6.52083 95.6406 5.85938C95.6406 5.41146 95.7708 5 96.0312 4.625C96.2917 4.25 96.6589 3.95052 97.1328 3.72656C97.612 3.5026 98.1589 3.39062 98.7734 3.39062C99.4297 3.39062 100.003 3.50781 100.492 3.74219C100.982 3.97656 101.354 4.29427 101.609 4.69531C101.87 5.09115 102 5.53385 102 6.02344H100.539C100.539 5.78385 100.469 5.55208 100.328 5.32812C100.188 5.10417 99.9818 4.92188 99.7109 4.78125C99.4453 4.63542 99.1328 4.5625 98.7734 4.5625C98.3932 4.5625 98.0781 4.6224 97.8281 4.74219C97.5781 4.85677 97.3932 5.01042 97.2734 5.20312C97.1589 5.39062 97.1016 5.59375 97.1016 5.8125C97.1016 6.03646 97.1536 6.22396 97.2578 6.375C97.3672 6.52083 97.5599 6.65365 97.8359 6.77344C98.1172 6.89323 98.5208 7.01042 99.0469 7.125C99.7552 7.28646 100.331 7.47656 100.773 7.69531C101.216 7.91406 101.544 8.18229 101.758 8.5C101.977 8.81771 102.086 9.20312 102.086 9.65625C102.086 10.1458 101.951 10.5807 101.68 10.9609C101.409 11.3359 101.026 11.6302 100.531 11.8438C100.036 12.0521 99.4635 12.1562 98.8125 12.1562C98.0938 12.1562 97.4714 12.0286 96.9453 11.7734C96.4245 11.513 96.0286 11.1719 95.7578 10.75C95.487 10.3281 95.3516 9.8776 95.3516 9.39844H96.8125C96.8333 9.77344 96.9427 10.0807 97.1406 10.3203C97.3385 10.5547 97.5833 10.724 97.875 10.8281C98.1719 10.9323 98.4844 10.9844 98.8125 10.9844C99.1927 10.9844 99.5182 10.9323 99.7891 10.8281C100.065 10.7188 100.273 10.5729 100.414 10.3906C100.555 10.2031 100.625 9.99219 100.625 9.75781C100.625 9.52344 100.576 9.32031 100.477 9.14844C100.378 8.97656 100.188 8.81771 99.9062 8.67188C99.625 8.52604 99.2188 8.39844 98.6875 8.28906ZM104.898 10.3672C105.185 10.3672 105.406 10.4505 105.562 10.6172C105.724 10.7786 105.805 10.987 105.805 11.2422C105.805 11.4922 105.724 11.6953 105.562 11.8516C105.406 12.0078 105.185 12.0859 104.898 12.0859C104.617 12.0859 104.396 12.0078 104.234 11.8516C104.078 11.6901 104 11.487 104 11.2422C104 10.987 104.078 10.7786 104.234 10.6172C104.396 10.4505 104.617 10.3672 104.898 10.3672ZM114.969 9.32812C114.943 9.82292 114.773 10.2891 114.461 10.7266C114.148 11.1589 113.737 11.5052 113.227 11.7656C112.721 12.026 112.177 12.1562 111.594 12.1562C110.776 12.1562 110.083 11.9688 109.516 11.5938C108.953 11.2135 108.531 10.7057 108.25 10.0703C107.969 9.42969 107.828 8.71875 107.828 7.9375V7.60938C107.828 6.82812 107.969 6.11979 108.25 5.48438C108.531 4.84375 108.953 4.33594 109.516 3.96094C110.083 3.58073 110.776 3.39062 111.594 3.39062C112.24 3.39062 112.812 3.52344 113.312 3.78906C113.818 4.05469 114.214 4.42188 114.5 4.89062C114.786 5.35417 114.943 5.875 114.969 6.45312H113.586C113.56 6.10417 113.461 5.78646 113.289 5.5C113.117 5.20833 112.885 4.97917 112.594 4.8125C112.302 4.64583 111.969 4.5625 111.594 4.5625C111.036 4.5625 110.586 4.70833 110.242 5C109.898 5.28646 109.654 5.65885 109.508 6.11719C109.362 6.57031 109.289 7.06771 109.289 7.60938V7.9375C109.289 8.80208 109.466 9.52604 109.82 10.1094C110.18 10.6927 110.771 10.9844 111.594 10.9844C111.932 10.9844 112.247 10.9141 112.539 10.7734C112.836 10.6276 113.078 10.4297 113.266 10.1797C113.453 9.92448 113.56 9.64062 113.586 9.32812H114.969ZM116.219 7.6875C116.219 6.86979 116.375 6.13542 116.688 5.48438C117 4.83333 117.445 4.32292 118.023 3.95312C118.607 3.57812 119.284 3.39062 120.055 3.39062C120.836 3.39062 121.518 3.57812 122.102 3.95312C122.685 4.32292 123.133 4.83333 123.445 5.48438C123.758 6.13542 123.914 6.86979 123.914 7.6875V7.86719C123.914 8.6849 123.758 9.41927 123.445 10.0703C123.133 10.7161 122.685 11.2266 122.102 11.6016C121.523 11.9714 120.846 12.1562 120.07 12.1562C119.294 12.1562 118.615 11.9714 118.031 11.6016C117.453 11.2266 117.005 10.7161 116.688 10.0703C116.375 9.41927 116.219 8.6849 116.219 7.86719V7.6875ZM117.68 7.86719C117.68 8.4401 117.768 8.96354 117.945 9.4375C118.128 9.91146 118.398 10.2891 118.758 10.5703C119.117 10.8464 119.555 10.9844 120.07 10.9844C120.581 10.9844 121.016 10.8464 121.375 10.5703C121.734 10.2891 122.003 9.91146 122.18 9.4375C122.362 8.96354 122.453 8.4401 122.453 7.86719V7.6875C122.453 7.11458 122.362 6.59115 122.18 6.11719C121.997 5.64323 121.727 5.26562 121.367 4.98438C121.008 4.70312 120.57 4.5625 120.055 4.5625C119.544 4.5625 119.109 4.70312 118.75 4.98438C118.396 5.26562 118.128 5.64323 117.945 6.11719C117.768 6.59115 117.68 7.11458 117.68 7.6875V7.86719ZM134.75 3.39062C135.677 3.39062 136.38 3.63802 136.859 4.13281C137.339 4.6276 137.578 5.39844 137.578 6.44531V12H136.117V6.42969C136.117 5.75781 135.964 5.28646 135.656 5.01562C135.354 4.73958 134.909 4.60156 134.32 4.60156C133.945 4.60156 133.617 4.68229 133.336 4.84375C133.055 5 132.833 5.21354 132.672 5.48438C132.516 5.75521 132.419 6.0599 132.383 6.39844V12H130.922V6.4375C130.922 5.21354 130.32 4.60156 129.117 4.60156C128.633 4.60156 128.232 4.70833 127.914 4.92188C127.596 5.13021 127.354 5.42188 127.188 5.79688V12H125.727V3.54688H127.109L127.156 4.46094C127.448 4.11719 127.802 3.85417 128.219 3.67188C128.635 3.48438 129.112 3.39062 129.648 3.39062C130.206 3.39062 130.693 3.5026 131.109 3.72656C131.531 3.94531 131.849 4.28125 132.062 4.73438C132.354 4.31771 132.727 3.98958 133.18 3.75C133.638 3.51042 134.161 3.39062 134.75 3.39062ZM140.695 10.3672C140.982 10.3672 141.203 10.4505 141.359 10.6172C141.521 10.7786 141.602 10.987 141.602 11.2422C141.602 11.4922 141.521 11.6953 141.359 11.8516C141.203 12.0078 140.982 12.0859 140.695 12.0859C140.414 12.0859 140.193 12.0078 140.031 11.8516C139.875 11.6901 139.797 11.487 139.797 11.2422C139.797 10.987 139.875 10.7786 140.031 10.6172C140.193 10.4505 140.414 10.3672 140.695 10.3672ZM147.867 3.39062C148.56 3.39062 149.154 3.57031 149.648 3.92969C150.143 4.28385 150.518 4.78646 150.773 5.4375C151.034 6.08333 151.164 6.83854 151.164 7.70312V7.86719C151.164 8.69531 151.034 9.4349 150.773 10.0859C150.518 10.7318 150.143 11.2396 149.648 11.6094C149.154 11.974 148.565 12.1562 147.883 12.1562C146.815 12.1562 145.99 11.7839 145.406 11.0391L145.336 12H144V0H145.461V4.45312C146.039 3.74479 146.841 3.39062 147.867 3.39062ZM149.703 7.70312C149.703 6.77604 149.526 6.02865 149.172 5.46094C148.823 4.88802 148.266 4.60156 147.5 4.60156C147.005 4.60156 146.589 4.72135 146.25 4.96094C145.917 5.19531 145.654 5.51562 145.461 5.92188V9.61719C145.659 10.0182 145.927 10.3385 146.266 10.5781C146.609 10.8177 147.026 10.9375 147.516 10.9375C148.25 10.9375 148.797 10.6536 149.156 10.0859C149.521 9.51302 149.703 8.77344 149.703 7.86719V7.70312ZM156.438 3.39062C156.531 3.39062 156.648 3.40365 156.789 3.42969C156.93 3.45052 157.026 3.47396 157.078 3.5V4.83594C156.854 4.79427 156.617 4.77344 156.367 4.77344C155.888 4.77344 155.487 4.88021 155.164 5.09375C154.846 5.30729 154.607 5.60677 154.445 5.99219V12H152.984V3.54688H154.406L154.438 4.50781C154.656 4.15365 154.932 3.88021 155.266 3.6875C155.599 3.48958 155.99 3.39062 156.438 3.39062Z" fill="white"/>
</svg>
